<svg xmlns="http://www.w3.org/2000/svg" viewBox="0 0 900 380" font-family="Noto Sans KR, sans-serif">
<rect width="900" height="380" fill="#ffffff"/>
<line x1="64" y1="345.1" x2="884" y2="345.1" stroke="#e9ecf2" stroke-width="1"/><text x="56" y="349.1" font-size="11" fill="#6a6d78" text-anchor="end">0</text><line x1="64" y1="296.5" x2="884" y2="296.5" stroke="#e9ecf2" stroke-width="1"/><text x="56" y="300.5" font-size="11" fill="#6a6d78" text-anchor="end">500</text><line x1="64" y1="247.9" x2="884" y2="247.9" stroke="#e9ecf2" stroke-width="1"/><text x="56" y="251.9" font-size="11" fill="#6a6d78" text-anchor="end">1000</text><line x1="64" y1="199.3" x2="884" y2="199.3" stroke="#e9ecf2" stroke-width="1"/><text x="56" y="203.3" font-size="11" fill="#6a6d78" text-anchor="end">1500</text><line x1="64" y1="150.8" x2="884" y2="150.8" stroke="#e9ecf2" stroke-width="1"/><text x="56" y="154.8" font-size="11" fill="#6a6d78" text-anchor="end">2000</text><line x1="64" y1="102.2" x2="884" y2="102.2" stroke="#e9ecf2" stroke-width="1"/><text x="56" y="106.2" font-size="11" fill="#6a6d78" text-anchor="end">2500</text><line x1="64" y1="53.6" x2="884" y2="53.6" stroke="#e9ecf2" stroke-width="1"/><text x="56" y="57.6" font-size="11" fill="#6a6d78" text-anchor="end">3000</text><line x1="241.8" y1="24" x2="241.8" y2="346" stroke="#d0d4dc" stroke-width="1" stroke-dasharray="3 3"/><text x="241.8" y="364" font-size="12" fill="#6a6d78" text-anchor="middle">2019</text><line x1="457.2" y1="24" x2="457.2" y2="346" stroke="#d0d4dc" stroke-width="1" stroke-dasharray="3 3"/><text x="457.2" y="364" font-size="12" fill="#6a6d78" text-anchor="middle">2020</text><line x1="673.2" y1="24" x2="673.2" y2="346" stroke="#d0d4dc" stroke-width="1" stroke-dasharray="3 3"/><text x="673.2" y="364" font-size="12" fill="#6a6d78" text-anchor="middle">2021</text>
<path d="M64.0 345.1L64.1 345.1L64.7 345.1L66.1 345.1L66.2 345.1L66.3 345.1L66.6 345.1L66.8 345.1L67.1 345.1L67.8 345.1L67.9 345.1L67.9 345.1L68.0 345.1L68.1 345.1L69.1 345.1L69.2 345.1L69.2 345.1L69.3 345.1L69.4 345.1L70.2 345.1L70.3 345.1L70.3 345.1L70.5 345.1L70.7 345.1L72.1 345.1L72.2 345.1L72.2 345.0L72.9 345.3L73.4 345.2L73.7 345.3L77.9 345.3L78.1 345.3L78.2 345.4L78.5 345.3L78.7 345.4L78.9 345.4L79.7 345.4L79.9 345.4L80.1 345.4L80.2 345.4L80.6 345.3L80.7 345.4L80.8 345.4L81.0 345.4L81.1 345.4L81.2 345.4L81.3 345.4L82.4 345.4L82.6 345.4L82.7 345.4L82.8 345.4L83.0 345.4L83.9 345.4L84.2 345.4L84.5 345.4L84.7 345.3L85.8 345.3L86.4 345.4L86.7 345.4L87.0 345.4L87.1 345.3L87.6 345.3L88.3 345.3L88.4 345.3L88.6 345.3L88.6 345.2L89.2 345.2L89.5 345.2L90.1 345.2L90.8 345.2L90.8 345.2L91.4 345.2L91.5 345.2L91.6 345.1L92.4 345.1L93.6 345.2L94.1 345.2L98.8 345.2L100.8 345.2L103.8 345.2L104.2 345.2L110.1 345.3L110.2 345.3L110.6 345.6L111.0 345.9L111.4 345.9L111.6 345.9L112.5 345.7L113.8 345.7L115.0 345.7L115.0 345.7L115.5 345.7L115.6 345.7L115.8 345.7L116.8 345.7L116.9 345.7L117.4 345.7L117.4 345.7L117.6 345.7L117.7 345.7L117.7 345.7L117.9 345.7L118.2 345.6L118.3 345.6L118.8 345.6L118.9 345.6L118.9 345.6L120.9 345.6L121.0 345.6L121.2 345.6L122.7 345.5L123.0 345.6L123.2 345.5L123.2 345.5L123.4 345.5L123.7 345.5L123.7 345.5L124.6 345.4L124.7 345.4L124.7 345.4L125.5 345.4L125.7 345.4L125.9 345.4L126.4 345.4L126.7 345.4L128.0 345.3L128.1 345.3L128.5 345.3L128.7 345.2L129.2 345.5L129.3 345.5L129.5 345.5L129.6 345.4L129.8 345.3L129.9 345.3L130.0 345.3L131.2 345.3L132.3 345.3L132.6 345.3L132.7 345.3L132.9 345.3L133.9 345.3L134.2 345.3L134.5 345.3L134.6 345.3L134.6 345.2L135.2 345.2L135.3 345.3L135.4 345.3L135.5 345.3L135.6 345.3L135.6 345.3L137.3 345.2L138.4 345.2L140.3 345.0L140.3 345.0L140.3 345.0L140.4 345.0L140.7 345.0L140.8 345.0L141.3 345.0L141.3 345.0L141.4 345.0L141.8 345.0L142.3 345.1L142.3 345.1L142.4 345.1L142.5 345.0L142.5 345.0L142.7 345.0L143.0 345.0L143.1 345.6L143.3 345.6L143.3 345.6L143.4 345.6L143.7 345.5L143.7 345.5L143.8 345.5L143.8 345.4L144.6 345.4L144.7 345.4L144.8 345.3L144.9 345.3L145.0 345.3L145.1 345.3L145.6 345.3L146.1 345.3L146.2 345.3L146.4 345.3L146.7 345.3L146.9 345.2L147.1 345.4L147.2 345.4L147.3 345.3L147.6 345.1L147.8 345.1L147.9 345.0L147.9 345.0L148.5 344.9L148.7 344.9L148.8 344.8L148.8 344.8L149.1 344.9L149.7 344.8L151.7 345.2L151.8 345.2L152.0 345.2L152.1 345.1L152.1 345.0L152.1 345.0L152.3 345.0L153.0 345.1L153.1 345.1L153.6 345.2L153.6 345.2L154.2 345.5L154.4 345.5L154.6 345.4L154.8 345.4L155.3 345.2L155.5 345.1L155.6 345.0L156.0 345.8L156.1 345.6L156.5 345.0L156.6 345.0L156.7 345.0L156.9 344.9L157.4 344.7L157.4 344.7L158.3 344.5L158.5 344.6L158.8 344.6L158.9 344.5L159.0 344.5L159.5 344.8L159.6 344.8L159.6 344.8L159.8 344.8L159.9 344.7L160.0 344.7L160.0 344.7L160.2 344.7L160.3 344.7L160.3 344.7L160.3 344.8L160.6 344.7L160.7 344.7L160.8 344.7L160.8 344.6L161.5 344.8L161.6 344.8L161.7 344.8L161.8 344.8L162.6 344.8L163.9 344.7L164.3 344.7L164.4 344.7L166.2 344.8L166.3 344.8L166.4 344.8L167.8 345.1L167.9 345.0L168.0 345.0L170.4 344.9L170.8 344.8L170.9 344.8L172.4 344.2L172.5 344.2L172.7 345.9L172.9 345.6L172.9 345.6L173.0 345.5L173.2 345.6L173.2 345.5L174.3 345.4L174.6 345.4L174.7 345.4L174.8 345.3L175.1 345.3L175.1 345.1L175.5 345.1L175.6 345.0L175.7 345.0L176.5 345.0L176.6 344.9L177.0 344.9L177.1 344.9L177.3 345.2L177.6 345.5L177.6 345.7L177.8 345.6L178.7 345.6L179.0 345.7L179.2 345.7L179.6 345.6L179.7 345.6L179.9 346.0L180.0 346.0L180.1 346.0L180.2 345.9L180.6 345.8L180.8 345.7L180.9 345.7L181.6 345.6L181.8 345.6L181.9 345.7L182.0 345.6L182.1 345.6L183.5 345.6L184.0 345.6L184.1 345.5L184.1 345.5L184.2 345.5L184.3 345.5L184.5 345.5L184.7 345.5L184.9 345.5L184.9 345.5L185.1 345.4L185.5 345.4L185.9 345.4L185.9 345.4L186.2 345.5L186.2 345.5L186.5 345.5L188.4 345.5L188.7 345.6L188.8 345.6L188.8 345.6L188.9 345.6L188.9 345.6L193.0 345.6L193.1 345.6L193.1 345.6L193.2 345.5L193.2 345.5L193.7 345.4L193.9 345.4L194.0 345.4L194.2 345.4L194.3 345.4L195.7 345.4L195.9 345.4L195.9 345.0L196.0 344.9L196.3 344.9L196.3 344.9L196.5 344.9L196.5 344.9L196.7 344.9L198.1 344.9L198.1 344.9L208.2 344.9L208.3 344.9L209.1 344.8L210.3 344.8L210.7 344.8L211.1 344.8L211.1 344.8L211.3 344.8L211.8 344.8L213.9 344.8L214.0 344.6L214.1 344.6L214.4 344.5L214.5 344.5L214.7 344.5L215.7 344.5L215.8 344.5L216.4 344.5L216.5 344.5L216.5 344.6L216.7 344.6L216.8 344.6L216.8 344.6L216.9 344.6L217.0 344.7L217.2 344.6L217.3 344.7L217.3 344.5L217.4 344.5L217.4 344.5L217.5 344.5L217.5 344.5L217.7 344.4L218.0 344.6L218.1 344.5L218.6 344.5L218.7 344.4L218.8 344.3L218.8 344.3L218.9 344.0L219.4 343.9L219.4 343.9L219.8 343.8L219.8 343.8L219.9 343.5L219.9 343.4L220.0 343.4L220.0 343.4L220.1 343.4L220.2 343.2L220.2 343.2L220.2 343.5L220.5 343.7L220.5 343.7L220.9 343.3L220.9 343.3L221.0 343.2L221.1 343.2L221.2 343.0L221.2 343.1L221.7 343.2L221.8 343.1L221.9 343.2L222.0 343.2L222.3 343.1L222.3 342.8L222.3 342.7L222.4 342.6L222.4 342.4L222.6 343.1L222.8 342.5L223.1 342.2L223.3 342.1L223.5 342.4L223.6 342.3L224.2 343.1L224.2 343.0L224.4 342.8L224.7 342.5L225.1 342.1L225.1 342.0L225.3 341.9L225.4 341.7L225.5 341.8L225.7 341.6L226.0 341.5L226.4 341.6L226.6 341.3L226.8 341.1L227.0 341.1L227.4 340.6L227.5 340.5L227.5 339.9L227.9 339.9L228.6 339.7L228.6 339.7L228.6 339.9L228.7 339.8L228.9 339.7L229.0 339.7L229.4 340.1L229.5 340.1L229.8 340.2L230.3 340.2L230.3 340.2L230.4 340.5L230.4 340.6L230.9 340.7L231.5 339.8L231.6 339.5L231.7 339.5L231.7 339.5L231.8 339.5L231.8 339.4L231.8 339.4L232.0 339.2L232.1 339.0L232.1 339.0L232.4 339.0L232.5 339.0L232.6 338.9L232.7 338.8L232.7 338.7L233.0 338.5L233.3 339.8L233.3 339.8L233.4 340.0L233.4 342.5L233.7 342.2L233.7 342.2L233.8 342.1L233.9 342.1L234.1 341.7L234.1 341.5L234.2 341.4L234.4 341.4L234.5 341.9L234.7 342.0L234.9 342.4L235.0 342.4L235.1 342.4L235.1 342.2L235.6 342.3L235.7 342.1L235.8 341.5L235.8 341.7L236.0 341.6L236.4 341.8L236.8 341.6L236.9 341.6L237.1 341.5L237.2 341.4L237.3 341.4L237.4 341.3L237.7 340.3L237.8 340.3L237.8 340.2L238.2 339.9L238.6 339.7L238.8 339.7L239.4 339.3L239.6 339.3L239.8 339.3L240.6 338.9L240.8 339.5L242.1 338.9L243.9 338.8L244.2 338.8L245.4 338.8L247.3 338.8L247.5 338.7L247.6 338.7L247.7 338.5L248.4 337.8L249.1 337.8L249.3 337.5L249.8 336.8L254.1 335.0L255.0 335.0L255.2 335.0L258.7 333.8L260.1 333.6L260.4 333.4L265.6 333.3L265.9 333.4L266.0 333.2L266.6 333.2L267.3 333.0L270.2 333.3L270.4 333.1L271.7 333.3L272.2 333.2L272.7 333.1L272.8 333.1L273.2 333.1L273.6 333.1L274.0 332.9L274.0 332.8L274.1 332.7L274.2 332.0L274.5 332.1L275.0 331.8L276.1 331.9L276.4 331.8L276.5 331.7L277.1 331.7L278.5 331.6L278.6 331.6L279.3 331.5L279.3 331.0L280.7 330.9L283.2 330.2L283.4 329.9L284.2 329.9L284.6 330.0L292.8 329.4L293.7 329.1L293.8 328.9L295.6 329.4L295.6 329.4L295.6 335.9L295.7 336.1L295.8 335.8L296.1 334.4L296.2 334.3L296.5 332.9L296.6 332.8L296.7 332.6L296.7 332.5L296.8 332.4L296.9 332.7L297.0 332.5L297.4 332.6L297.5 332.6L298.6 331.0L299.4 330.9L299.7 330.9L299.9 330.9L300.3 330.7L300.5 330.7L300.6 330.7L300.8 330.7L300.9 330.6L300.9 330.6L301.1 330.5L301.2 330.2L301.5 330.0L301.6 330.0L302.0 329.8L303.6 329.9L304.2 329.9L304.6 329.7L304.7 329.7L305.1 329.5L307.0 329.1L307.3 328.7L307.3 328.7L307.7 328.4L307.7 328.3L308.0 327.6L308.7 327.0L308.9 326.8L309.0 326.7L309.1 326.6L309.5 325.9L309.6 325.7L310.1 327.1L310.3 326.9L310.6 326.9L311.7 326.9L311.8 326.9L312.4 327.6L312.6 327.6L313.9 328.2L315.2 327.3L315.4 327.1L315.4 327.1L315.6 325.8L315.7 325.4L316.0 326.0L316.3 326.3L316.4 326.2L316.5 325.5L316.5 325.4L316.8 325.0L316.9 325.0L318.4 325.6L318.6 325.3L318.6 325.0L318.7 324.7L318.7 324.6L319.0 323.7L319.1 326.0L319.3 325.0L319.4 323.5L319.5 323.8L320.0 323.7L320.2 325.8L320.2 325.8L320.2 325.8L320.7 325.1L320.7 325.1L320.9 324.4L321.9 323.2L322.0 323.0L322.1 322.8L322.6 322.3L323.3 322.2L323.3 322.3L323.4 322.2L323.6 322.2L323.8 322.2L323.8 322.8L324.0 322.6L324.1 322.5L324.5 321.9L324.5 321.9L324.6 321.9L324.9 322.1L325.6 321.6L325.6 321.4L325.8 321.1L325.8 321.1L325.9 321.1L326.7 321.4L327.9 321.5L332.7 322.3L332.8 322.0L332.9 321.7L337.5 321.3L339.3 321.3L339.9 320.6L340.2 320.5L340.5 320.1L341.1 320.0L341.4 320.0L341.7 319.8L345.0 320.8L346.1 319.1L346.3 319.2L346.4 318.7L346.7 318.8L347.0 318.5L347.1 318.2L347.2 318.2L348.7 317.3L349.0 319.2L349.0 319.3L349.1 319.0L349.3 319.0L349.4 318.8L349.8 319.2L357.9 314.7L358.3 313.7L358.5 314.3L358.7 313.9L359.3 313.4L359.5 313.8L360.8 313.8L362.3 313.1L364.2 313.7L366.9 314.6L367.7 314.8L367.9 314.8L369.5 314.5L369.5 314.4L369.7 314.4L369.9 314.2L370.1 314.2L370.6 313.6L371.1 312.7L371.2 312.7L371.6 313.0L374.7 313.0L374.8 312.9L374.9 312.8L375.2 312.4L375.4 312.4L377.4 312.4L377.6 312.4L378.8 312.4L379.0 312.1L379.0 312.1L379.1 312.1L379.9 311.9L380.1 311.7L381.2 311.3L382.2 310.1L382.3 310.0L383.3 310.6L383.6 310.0L383.6 310.2L387.3 310.4L387.8 310.2L388.0 310.2L388.3 310.1L388.3 309.9L389.7 309.1L390.1 308.9L390.2 310.0L391.3 309.9L396.4 310.2L398.4 310.2L398.9 310.0L399.3 310.0L408.5 308.1L410.0 308.0L410.5 307.8L412.7 307.8L417.5 309.4L418.6 309.1L419.0 308.4L422.3 308.9L428.4 307.5L429.0 307.3L429.6 307.5L430.2 307.2L431.2 307.2L431.8 307.3L433.2 306.6L433.3 306.5L433.9 303.4L434.0 303.4L434.4 303.6L434.4 303.4L435.4 300.5L435.7 300.4L435.9 300.3L436.8 299.8L439.3 297.5L441.0 296.8L441.6 296.7L442.1 296.8L449.3 292.5L449.6 292.6L452.8 292.3L453.0 291.7L453.7 291.8L454.7 291.8L457.9 292.0L458.4 290.9L458.6 291.0L458.6 291.0L459.9 289.3L460.8 290.3L461.1 290.3L461.2 290.0L461.8 287.8L461.8 287.4L462.3 286.9L462.8 286.5L462.9 286.3L462.9 286.0L465.0 285.3L465.2 285.3L465.3 285.2L465.3 285.2L466.1 285.2L466.6 285.2L466.7 285.1L466.8 285.0L470.9 279.5L471.1 279.6L473.3 280.9L474.1 279.1L478.7 278.1L481.0 278.0L481.8 278.0L482.3 277.2L482.7 277.1L484.2 276.4L485.7 276.7L485.8 276.7L497.7 272.3L497.8 271.6L499.0 269.7L499.4 269.7L499.6 268.0L499.6 267.3L499.7 264.3L499.7 264.0L499.8 264.0L499.8 264.2L500.1 270.4L501.4 274.3L501.7 269.8L501.7 269.6L503.6 271.9L503.6 271.5L503.7 271.7L504.3 274.6L504.3 276.8L504.6 277.1L504.8 277.0L504.9 276.1L504.9 275.5L505.5 269.9L505.5 269.6L505.9 267.2L510.2 261.2L510.3 261.2L520.0 269.7L522.4 269.1L523.2 267.5L523.7 267.5L525.6 268.0L526.0 267.9L526.1 268.6L527.1 267.7L527.6 268.0L527.8 266.4L528.3 266.1L528.5 265.8L528.6 265.5L531.9 261.4L532.6 262.7L533.6 262.7L533.9 260.2L534.0 259.5L534.0 259.5L534.1 258.6L534.2 258.0L535.0 259.7L535.1 260.7L536.3 260.4L539.4 263.1L539.6 263.1L547.5 258.9L547.9 263.5L553.1 264.3L553.2 263.7L555.6 259.9L559.7 259.4L562.8 253.6L563.2 253.5L563.3 253.5L564.6 253.4L567.7 254.3L572.4 254.4L572.4 255.3L576.6 255.3L580.4 253.7L580.8 253.4L580.8 253.3L582.2 252.0L583.1 249.3L583.6 249.4L584.4 246.0L585.6 242.6L586.9 239.6L589.2 243.4L589.3 243.4L589.4 242.4L589.5 242.1L589.6 241.1L590.5 240.1L590.5 240.1L592.8 240.1L593.0 240.3L593.4 241.5L593.7 239.3L594.0 238.9L597.3 236.6L597.5 234.7L598.0 236.4L598.0 236.4L598.6 236.6L598.7 238.3L599.0 238.6L599.1 238.6L599.2 238.6L599.2 238.6L599.8 238.6L600.2 238.5L602.8 224.2L603.2 225.2L603.4 224.2L603.5 223.6L604.0 214.7L604.1 216.4L614.7 226.2L614.7 226.2L615.3 229.9L615.4 229.6L615.6 229.6L615.7 229.4L615.7 229.4L615.8 229.1L623.4 227.0L625.7 227.0L625.7 227.1L627.4 227.7L627.5 227.7L627.9 228.1L630.8 242.3L631.1 241.7L631.2 242.1L631.3 240.6L631.8 241.9L634.7 238.9L635.7 233.9L635.8 233.9L636.0 232.3L636.1 232.3L636.7 232.7L638.5 229.4L638.6 228.9L639.0 230.2L639.8 227.7L640.7 231.0L640.8 230.4L641.2 231.3L641.2 232.0L642.2 237.3L642.4 237.9L642.5 238.1L642.8 238.2L648.3 241.4L649.0 241.5L649.6 242.3L651.5 240.8L651.8 240.8L652.0 241.0L652.0 240.4L652.2 239.9L652.3 239.6L652.4 239.6L652.5 236.5L652.8 233.0L654.3 230.2L654.8 237.1L655.5 232.0L657.0 232.0L657.3 231.9L657.3 231.9L658.5 233.3L659.9 233.3L660.5 233.3L662.2 228.0L662.5 227.7L664.2 227.7L664.5 231.1L664.5 230.9L664.6 233.8L667.1 230.6L668.5 230.1L668.5 226.2L670.6 226.2L670.8 238.4L671.4 238.4L672.2 237.0L673.9 240.7L674.8 242.5L675.0 242.5L675.2 240.1L675.6 239.2L675.6 238.3L675.7 235.0L675.8 235.0L676.1 235.0L676.3 235.0L679.0 236.4L679.1 236.8L679.2 237.7L679.3 234.3L679.3 232.9L679.4 231.4L679.7 229.8L680.5 227.6L680.8 225.6L681.8 222.4L681.9 223.8L682.1 225.1L684.4 223.8L685.1 222.6L685.3 222.6L686.3 217.9L688.4 215.7L689.9 213.6L690.0 208.7L690.3 207.9L696.3 208.0L699.5 225.5L699.8 225.6L700.7 228.2L702.2 227.7L702.4 227.9L702.6 226.7L704.2 225.6L704.7 218.0L705.3 218.0L706.3 217.4L706.3 215.4L706.3 215.4L706.3 215.1L706.5 214.2L706.8 211.6L707.0 212.4L708.4 211.9L709.6 208.9L739.8 212.6L740.2 196.4L741.1 195.2L741.1 192.6L746.2 195.0L746.6 195.0L746.8 200.3L747.4 201.4L751.1 198.9L751.4 210.9L751.5 209.4L751.7 208.4L753.4 206.7L753.4 204.2L753.6 202.3L753.6 201.9L753.8 200.3L753.8 198.0L753.9 197.0L753.9 194.8L754.7 194.9L754.7 192.5L755.0 206.7L755.0 223.5L755.1 227.6L755.1 228.0L755.3 223.2L755.3 223.0L755.4 220.1L755.7 220.1L755.7 221.4L755.7 218.5L756.2 216.6L756.2 206.4L757.6 206.8L757.9 194.8L758.5 195.1L758.7 192.8L760.0 184.8L760.2 183.5L762.0 177.4L762.1 173.7L762.5 171.1L762.7 169.8L764.0 162.7L766.8 154.5L766.8 132.5L767.0 130.7L767.2 127.4L768.1 128.4L768.1 125.9L768.9 140.4L769.9 133.0L770.3 131.1L772.6 124.3L772.7 114.4L774.3 123.1L774.4 119.3L774.4 113.8L774.5 113.4L774.5 112.0L774.5 111.7L774.6 110.8L774.6 110.4L774.6 110.3L775.0 109.9L775.0 108.0L775.1 108.4L775.1 107.6L775.8 108.3L775.8 115.6L776.0 116.4L777.4 122.8L777.4 124.4L778.5 128.7L780.0 127.9L780.4 125.5L780.7 138.1L782.8 138.1L784.8 130.8L784.8 128.7L787.1 130.6L792.7 127.0L795.0 123.0L795.0 121.6L795.1 121.6L799.7 119.6L799.7 118.6L799.7 118.7L801.1 114.3L801.4 113.3L802.0 111.6L802.9 111.6L802.9 111.6L803.2 103.5L805.2 99.3L805.5 99.0L808.9 94.8L809.0 89.1L812.3 88.6L812.4 88.5L813.3 84.5L815.5 83.4L820.4 66.5L820.5 65.3L820.6 66.7L825.3 68.9L825.3 69.2L828.2 62.7L828.3 62.5L828.3 49.0L828.6 48.5L828.8 47.6L828.9 45.6L829.2 44.8L829.4 42.7L830.5 41.4L830.6 40.0L831.6 33.6L831.6 30.4L831.6 28.6L832.2 26.0L832.3 24.0L847.2 42.5L852.2 40.8L857.8 42.0L863.2 63.7L863.2 62.4L868.7 60.6L884.0 79.1L884.0 345.1L64.0 345.1Z" fill="#26a69a" fill-opacity="0.10"/>
<path d="M64.0 345.1L64.1 345.1L64.7 345.1L66.1 345.1L66.2 345.1L66.3 345.1L66.6 345.1L66.8 345.1L67.1 345.1L67.8 345.1L67.9 345.1L67.9 345.1L68.0 345.1L68.1 345.1L69.1 345.1L69.2 345.1L69.2 345.1L69.3 345.1L69.4 345.1L70.2 345.1L70.3 345.1L70.3 345.1L70.5 345.1L70.7 345.1L72.1 345.1L72.2 345.1L72.2 345.0L72.9 345.3L73.4 345.2L73.7 345.3L77.9 345.3L78.1 345.3L78.2 345.4L78.5 345.3L78.7 345.4L78.9 345.4L79.7 345.4L79.9 345.4L80.1 345.4L80.2 345.4L80.6 345.3L80.7 345.4L80.8 345.4L81.0 345.4L81.1 345.4L81.2 345.4L81.3 345.4L82.4 345.4L82.6 345.4L82.7 345.4L82.8 345.4L83.0 345.4L83.9 345.4L84.2 345.4L84.5 345.4L84.7 345.3L85.8 345.3L86.4 345.4L86.7 345.4L87.0 345.4L87.1 345.3L87.6 345.3L88.3 345.3L88.4 345.3L88.6 345.3L88.6 345.2L89.2 345.2L89.5 345.2L90.1 345.2L90.8 345.2L90.8 345.2L91.4 345.2L91.5 345.2L91.6 345.1L92.4 345.1L93.6 345.2L94.1 345.2L98.8 345.2L100.8 345.2L103.8 345.2L104.2 345.2L110.1 345.3L110.2 345.3L110.6 345.6L111.0 345.9L111.4 345.9L111.6 345.9L112.5 345.7L113.8 345.7L115.0 345.7L115.0 345.7L115.5 345.7L115.6 345.7L115.8 345.7L116.8 345.7L116.9 345.7L117.4 345.7L117.4 345.7L117.6 345.7L117.7 345.7L117.7 345.7L117.9 345.7L118.2 345.6L118.3 345.6L118.8 345.6L118.9 345.6L118.9 345.6L120.9 345.6L121.0 345.6L121.2 345.6L122.7 345.5L123.0 345.6L123.2 345.5L123.2 345.5L123.4 345.5L123.7 345.5L123.7 345.5L124.6 345.4L124.7 345.4L124.7 345.4L125.5 345.4L125.7 345.4L125.9 345.4L126.4 345.4L126.7 345.4L128.0 345.3L128.1 345.3L128.5 345.3L128.7 345.2L129.2 345.5L129.3 345.5L129.5 345.5L129.6 345.4L129.8 345.3L129.9 345.3L130.0 345.3L131.2 345.3L132.3 345.3L132.6 345.3L132.7 345.3L132.9 345.3L133.9 345.3L134.2 345.3L134.5 345.3L134.6 345.3L134.6 345.2L135.2 345.2L135.3 345.3L135.4 345.3L135.5 345.3L135.6 345.3L135.6 345.3L137.3 345.2L138.4 345.2L140.3 345.0L140.3 345.0L140.3 345.0L140.4 345.0L140.7 345.0L140.8 345.0L141.3 345.0L141.3 345.0L141.4 345.0L141.8 345.0L142.3 345.1L142.3 345.1L142.4 345.1L142.5 345.0L142.5 345.0L142.7 345.0L143.0 345.0L143.1 345.6L143.3 345.6L143.3 345.6L143.4 345.6L143.7 345.5L143.7 345.5L143.8 345.5L143.8 345.4L144.6 345.4L144.7 345.4L144.8 345.3L144.9 345.3L145.0 345.3L145.1 345.3L145.6 345.3L146.1 345.3L146.2 345.3L146.4 345.3L146.7 345.3L146.9 345.2L147.1 345.4L147.2 345.4L147.3 345.3L147.6 345.1L147.8 345.1L147.9 345.0L147.9 345.0L148.5 344.9L148.7 344.9L148.8 344.8L148.8 344.8L149.1 344.9L149.7 344.8L151.7 345.2L151.8 345.2L152.0 345.2L152.1 345.1L152.1 345.0L152.1 345.0L152.3 345.0L153.0 345.1L153.1 345.1L153.6 345.2L153.6 345.2L154.2 345.5L154.4 345.5L154.6 345.4L154.8 345.4L155.3 345.2L155.5 345.1L155.6 345.0L156.0 345.8L156.1 345.6L156.5 345.0L156.6 345.0L156.7 345.0L156.9 344.9L157.4 344.7L157.4 344.7L158.3 344.5L158.5 344.6L158.8 344.6L158.9 344.5L159.0 344.5L159.5 344.8L159.6 344.8L159.6 344.8L159.8 344.8L159.9 344.7L160.0 344.7L160.0 344.7L160.2 344.7L160.3 344.7L160.3 344.7L160.3 344.8L160.6 344.7L160.7 344.7L160.8 344.7L160.8 344.6L161.5 344.8L161.6 344.8L161.7 344.8L161.8 344.8L162.6 344.8L163.9 344.7L164.3 344.7L164.4 344.7L166.2 344.8L166.3 344.8L166.4 344.8L167.8 345.1L167.9 345.0L168.0 345.0L170.4 344.9L170.8 344.8L170.9 344.8L172.4 344.2L172.5 344.2L172.7 345.9L172.9 345.6L172.9 345.6L173.0 345.5L173.2 345.6L173.2 345.5L174.3 345.4L174.6 345.4L174.7 345.4L174.8 345.3L175.1 345.3L175.1 345.1L175.5 345.1L175.6 345.0L175.7 345.0L176.5 345.0L176.6 344.9L177.0 344.9L177.1 344.9L177.3 345.2L177.6 345.5L177.6 345.7L177.8 345.6L178.7 345.6L179.0 345.7L179.2 345.7L179.6 345.6L179.7 345.6L179.9 346.0L180.0 346.0L180.1 346.0L180.2 345.9L180.6 345.8L180.8 345.7L180.9 345.7L181.6 345.6L181.8 345.6L181.9 345.7L182.0 345.6L182.1 345.6L183.5 345.6L184.0 345.6L184.1 345.5L184.1 345.5L184.2 345.5L184.3 345.5L184.5 345.5L184.7 345.5L184.9 345.5L184.9 345.5L185.1 345.4L185.5 345.4L185.9 345.4L185.9 345.4L186.2 345.5L186.2 345.5L186.5 345.5L188.4 345.5L188.7 345.6L188.8 345.6L188.8 345.6L188.9 345.6L188.9 345.6L193.0 345.6L193.1 345.6L193.1 345.6L193.2 345.5L193.2 345.5L193.7 345.4L193.9 345.4L194.0 345.4L194.2 345.4L194.3 345.4L195.7 345.4L195.9 345.4L195.9 345.0L196.0 344.9L196.3 344.9L196.3 344.9L196.5 344.9L196.5 344.9L196.7 344.9L198.1 344.9L198.1 344.9L208.2 344.9L208.3 344.9L209.1 344.8L210.3 344.8L210.7 344.8L211.1 344.8L211.1 344.8L211.3 344.8L211.8 344.8L213.9 344.8L214.0 344.6L214.1 344.6L214.4 344.5L214.5 344.5L214.7 344.5L215.7 344.5L215.8 344.5L216.4 344.5L216.5 344.5L216.5 344.6L216.7 344.6L216.8 344.6L216.8 344.6L216.9 344.6L217.0 344.7L217.2 344.6L217.3 344.7L217.3 344.5L217.4 344.5L217.4 344.5L217.5 344.5L217.5 344.5L217.7 344.4L218.0 344.6L218.1 344.5L218.6 344.5L218.7 344.4L218.8 344.3L218.8 344.3L218.9 344.0L219.4 343.9L219.4 343.9L219.8 343.8L219.8 343.8L219.9 343.5L219.9 343.4L220.0 343.4L220.0 343.4L220.1 343.4L220.2 343.2L220.2 343.2L220.2 343.5L220.5 343.7L220.5 343.7L220.9 343.3L220.9 343.3L221.0 343.2L221.1 343.2L221.2 343.0L221.2 343.1L221.7 343.2L221.8 343.1L221.9 343.2L222.0 343.2L222.3 343.1L222.3 342.8L222.3 342.7L222.4 342.6L222.4 342.4L222.6 343.1L222.8 342.5L223.1 342.2L223.3 342.1L223.5 342.4L223.6 342.3L224.2 343.1L224.2 343.0L224.4 342.8L224.7 342.5L225.1 342.1L225.1 342.0L225.3 341.9L225.4 341.7L225.5 341.8L225.7 341.6L226.0 341.5L226.4 341.6L226.6 341.3L226.8 341.1L227.0 341.1L227.4 340.6L227.5 340.5L227.5 339.9L227.9 339.9L228.6 339.7L228.6 339.7L228.6 339.9L228.7 339.8L228.9 339.7L229.0 339.7L229.4 340.1L229.5 340.1L229.8 340.2L230.3 340.2L230.3 340.2L230.4 340.5L230.4 340.6L230.9 340.7L231.5 339.8L231.6 339.5L231.7 339.5L231.7 339.5L231.8 339.5L231.8 339.4L231.8 339.4L232.0 339.2L232.1 339.0L232.1 339.0L232.4 339.0L232.5 339.0L232.6 338.9L232.7 338.8L232.7 338.7L233.0 338.5L233.3 339.8L233.3 339.8L233.4 340.0L233.4 342.5L233.7 342.2L233.7 342.2L233.8 342.1L233.9 342.1L234.1 341.7L234.1 341.5L234.2 341.4L234.4 341.4L234.5 341.9L234.7 342.0L234.9 342.4L235.0 342.4L235.1 342.4L235.1 342.2L235.6 342.3L235.7 342.1L235.8 341.5L235.8 341.7L236.0 341.6L236.4 341.8L236.8 341.6L236.9 341.6L237.1 341.5L237.2 341.4L237.3 341.4L237.4 341.3L237.7 340.3L237.8 340.3L237.8 340.2L238.2 339.9L238.6 339.7L238.8 339.7L239.4 339.3L239.6 339.3L239.8 339.3L240.6 338.9L240.8 339.5L242.1 338.9L243.9 338.8L244.2 338.8L245.4 338.8L247.3 338.8L247.5 338.7L247.6 338.7L247.7 338.5L248.4 337.8L249.1 337.8L249.3 337.5L249.8 336.8L254.1 335.0L255.0 335.0L255.2 335.0L258.7 333.8L260.1 333.6L260.4 333.4L265.6 333.3L265.9 333.4L266.0 333.2L266.6 333.2L267.3 333.0L270.2 333.3L270.4 333.1L271.7 333.3L272.2 333.2L272.7 333.1L272.8 333.1L273.2 333.1L273.6 333.1L274.0 332.9L274.0 332.8L274.1 332.7L274.2 332.0L274.5 332.1L275.0 331.8L276.1 331.9L276.4 331.8L276.5 331.7L277.1 331.7L278.5 331.6L278.6 331.6L279.3 331.5L279.3 331.0L280.7 330.9L283.2 330.2L283.4 329.9L284.2 329.9L284.6 330.0L292.8 329.4L293.7 329.1L293.8 328.9L295.6 329.4L295.6 329.4L295.6 335.9L295.7 336.1L295.8 335.8L296.1 334.4L296.2 334.3L296.5 332.9L296.6 332.8L296.7 332.6L296.7 332.5L296.8 332.4L296.9 332.7L297.0 332.5L297.4 332.6L297.5 332.6L298.6 331.0L299.4 330.9L299.7 330.9L299.9 330.9L300.3 330.7L300.5 330.7L300.6 330.7L300.8 330.7L300.9 330.6L300.9 330.6L301.1 330.5L301.2 330.2L301.5 330.0L301.6 330.0L302.0 329.8L303.6 329.9L304.2 329.9L304.6 329.7L304.7 329.7L305.1 329.5L307.0 329.1L307.3 328.7L307.3 328.7L307.7 328.4L307.7 328.3L308.0 327.6L308.7 327.0L308.9 326.8L309.0 326.7L309.1 326.6L309.5 325.9L309.6 325.7L310.1 327.1L310.3 326.9L310.6 326.9L311.7 326.9L311.8 326.9L312.4 327.6L312.6 327.6L313.9 328.2L315.2 327.3L315.4 327.1L315.4 327.1L315.6 325.8L315.7 325.4L316.0 326.0L316.3 326.3L316.4 326.2L316.5 325.5L316.5 325.4L316.8 325.0L316.9 325.0L318.4 325.6L318.6 325.3L318.6 325.0L318.7 324.7L318.7 324.6L319.0 323.7L319.1 326.0L319.3 325.0L319.4 323.5L319.5 323.8L320.0 323.7L320.2 325.8L320.2 325.8L320.2 325.8L320.7 325.1L320.7 325.1L320.9 324.4L321.9 323.2L322.0 323.0L322.1 322.8L322.6 322.3L323.3 322.2L323.3 322.3L323.4 322.2L323.6 322.2L323.8 322.2L323.8 322.8L324.0 322.6L324.1 322.5L324.5 321.9L324.5 321.9L324.6 321.9L324.9 322.1L325.6 321.6L325.6 321.4L325.8 321.1L325.8 321.1L325.9 321.1L326.7 321.4L327.9 321.5L332.7 322.3L332.8 322.0L332.9 321.7L337.5 321.3L339.3 321.3L339.9 320.6L340.2 320.5L340.5 320.1L341.1 320.0L341.4 320.0L341.7 319.8L345.0 320.8L346.1 319.1L346.3 319.2L346.4 318.7L346.7 318.8L347.0 318.5L347.1 318.2L347.2 318.2L348.7 317.3L349.0 319.2L349.0 319.3L349.1 319.0L349.3 319.0L349.4 318.8L349.8 319.2L357.9 314.7L358.3 313.7L358.5 314.3L358.7 313.9L359.3 313.4L359.5 313.8L360.8 313.8L362.3 313.1L364.2 313.7L366.9 314.6L367.7 314.8L367.9 314.8L369.5 314.5L369.5 314.4L369.7 314.4L369.9 314.2L370.1 314.2L370.6 313.6L371.1 312.7L371.2 312.7L371.6 313.0L374.7 313.0L374.8 312.9L374.9 312.8L375.2 312.4L375.4 312.4L377.4 312.4L377.6 312.4L378.8 312.4L379.0 312.1L379.0 312.1L379.1 312.1L379.9 311.9L380.1 311.7L381.2 311.3L382.2 310.1L382.3 310.0L383.3 310.6L383.6 310.0L383.6 310.2L387.3 310.4L387.8 310.2L388.0 310.2L388.3 310.1L388.3 309.9L389.7 309.1L390.1 308.9L390.2 310.0L391.3 309.9L396.4 310.2L398.4 310.2L398.9 310.0L399.3 310.0L408.5 308.1L410.0 308.0L410.5 307.8L412.7 307.8L417.5 309.4L418.6 309.1L419.0 308.4L422.3 308.9L428.4 307.5L429.0 307.3L429.6 307.5L430.2 307.2L431.2 307.2L431.8 307.3L433.2 306.6L433.3 306.5L433.9 303.4L434.0 303.4L434.4 303.6L434.4 303.4L435.4 300.5L435.7 300.4L435.9 300.3L436.8 299.8L439.3 297.5L441.0 296.8L441.6 296.7L442.1 296.8L449.3 292.5L449.6 292.6L452.8 292.3L453.0 291.7L453.7 291.8L454.7 291.8L457.9 292.0L458.4 290.9L458.6 291.0L458.6 291.0L459.9 289.3L460.8 290.3L461.1 290.3L461.2 290.0L461.8 287.8L461.8 287.4L462.3 286.9L462.8 286.5L462.9 286.3L462.9 286.0L465.0 285.3L465.2 285.3L465.3 285.2L465.3 285.2L466.1 285.2L466.6 285.2L466.7 285.1L466.8 285.0L470.9 279.5L471.1 279.6L473.3 280.9L474.1 279.1L478.7 278.1L481.0 278.0L481.8 278.0L482.3 277.2L482.7 277.1L484.2 276.4L485.7 276.7L485.8 276.7L497.7 272.3L497.8 271.6L499.0 269.7L499.4 269.7L499.6 268.0L499.6 267.3L499.7 264.3L499.7 264.0L499.8 264.0L499.8 264.2L500.1 270.4L501.4 274.3L501.7 269.8L501.7 269.6L503.6 271.9L503.6 271.5L503.7 271.7L504.3 274.6L504.3 276.8L504.6 277.1L504.8 277.0L504.9 276.1L504.9 275.5L505.5 269.9L505.5 269.6L505.9 267.2L510.2 261.2L510.3 261.2L520.0 269.7L522.4 269.1L523.2 267.5L523.7 267.5L525.6 268.0L526.0 267.9L526.1 268.6L527.1 267.7L527.6 268.0L527.8 266.4L528.3 266.1L528.5 265.8L528.6 265.5L531.9 261.4L532.6 262.7L533.6 262.7L533.9 260.2L534.0 259.5L534.0 259.5L534.1 258.6L534.2 258.0L535.0 259.7L535.1 260.7L536.3 260.4L539.4 263.1L539.6 263.1L547.5 258.9L547.9 263.5L553.1 264.3L553.2 263.7L555.6 259.9L559.7 259.4L562.8 253.6L563.2 253.5L563.3 253.5L564.6 253.4L567.7 254.3L572.4 254.4L572.4 255.3L576.6 255.3L580.4 253.7L580.8 253.4L580.8 253.3L582.2 252.0L583.1 249.3L583.6 249.4L584.4 246.0L585.6 242.6L586.9 239.6L589.2 243.4L589.3 243.4L589.4 242.4L589.5 242.1L589.6 241.1L590.5 240.1L590.5 240.1L592.8 240.1L593.0 240.3L593.4 241.5L593.7 239.3L594.0 238.9L597.3 236.6L597.5 234.7L598.0 236.4L598.0 236.4L598.6 236.6L598.7 238.3L599.0 238.6L599.1 238.6L599.2 238.6L599.2 238.6L599.8 238.6L600.2 238.5L602.8 224.2L603.2 225.2L603.4 224.2L603.5 223.6L604.0 214.7L604.1 216.4L614.7 226.2L614.7 226.2L615.3 229.9L615.4 229.6L615.6 229.6L615.7 229.4L615.7 229.4L615.8 229.1L623.4 227.0L625.7 227.0L625.7 227.1L627.4 227.7L627.5 227.7L627.9 228.1L630.8 242.3L631.1 241.7L631.2 242.1L631.3 240.6L631.8 241.9L634.7 238.9L635.7 233.9L635.8 233.9L636.0 232.3L636.1 232.3L636.7 232.7L638.5 229.4L638.6 228.9L639.0 230.2L639.8 227.7L640.7 231.0L640.8 230.4L641.2 231.3L641.2 232.0L642.2 237.3L642.4 237.9L642.5 238.1L642.8 238.2L648.3 241.4L649.0 241.5L649.6 242.3L651.5 240.8L651.8 240.8L652.0 241.0L652.0 240.4L652.2 239.9L652.3 239.6L652.4 239.6L652.5 236.5L652.8 233.0L654.3 230.2L654.8 237.1L655.5 232.0L657.0 232.0L657.3 231.9L657.3 231.9L658.5 233.3L659.9 233.3L660.5 233.3L662.2 228.0L662.5 227.7L664.2 227.7L664.5 231.1L664.5 230.9L664.6 233.8L667.1 230.6L668.5 230.1L668.5 226.2L670.6 226.2L670.8 238.4L671.4 238.4L672.2 237.0L673.9 240.7L674.8 242.5L675.0 242.5L675.2 240.1L675.6 239.2L675.6 238.3L675.7 235.0L675.8 235.0L676.1 235.0L676.3 235.0L679.0 236.4L679.1 236.8L679.2 237.7L679.3 234.3L679.3 232.9L679.4 231.4L679.7 229.8L680.5 227.6L680.8 225.6L681.8 222.4L681.9 223.8L682.1 225.1L684.4 223.8L685.1 222.6L685.3 222.6L686.3 217.9L688.4 215.7L689.9 213.6L690.0 208.7L690.3 207.9L696.3 208.0L699.5 225.5L699.8 225.6L700.7 228.2L702.2 227.7L702.4 227.9L702.6 226.7L704.2 225.6L704.7 218.0L705.3 218.0L706.3 217.4L706.3 215.4L706.3 215.4L706.3 215.1L706.5 214.2L706.8 211.6L707.0 212.4L708.4 211.9L709.6 208.9L739.8 212.6L740.2 196.4L741.1 195.2L741.1 192.6L746.2 195.0L746.6 195.0L746.8 200.3L747.4 201.4L751.1 198.9L751.4 210.9L751.5 209.4L751.7 208.4L753.4 206.7L753.4 204.2L753.6 202.3L753.6 201.9L753.8 200.3L753.8 198.0L753.9 197.0L753.9 194.8L754.7 194.9L754.7 192.5L755.0 206.7L755.0 223.5L755.1 227.6L755.1 228.0L755.3 223.2L755.3 223.0L755.4 220.1L755.7 220.1L755.7 221.4L755.7 218.5L756.2 216.6L756.2 206.4L757.6 206.8L757.9 194.8L758.5 195.1L758.7 192.8L760.0 184.8L760.2 183.5L762.0 177.4L762.1 173.7L762.5 171.1L762.7 169.8L764.0 162.7L766.8 154.5L766.8 132.5L767.0 130.7L767.2 127.4L768.1 128.4L768.1 125.9L768.9 140.4L769.9 133.0L770.3 131.1L772.6 124.3L772.7 114.4L774.3 123.1L774.4 119.3L774.4 113.8L774.5 113.4L774.5 112.0L774.5 111.7L774.6 110.8L774.6 110.4L774.6 110.3L775.0 109.9L775.0 108.0L775.1 108.4L775.1 107.6L775.8 108.3L775.8 115.6L776.0 116.4L777.4 122.8L777.4 124.4L778.5 128.7L780.0 127.9L780.4 125.5L780.7 138.1L782.8 138.1L784.8 130.8L784.8 128.7L787.1 130.6L792.7 127.0L795.0 123.0L795.0 121.6L795.1 121.6L799.7 119.6L799.7 118.6L799.7 118.7L801.1 114.3L801.4 113.3L802.0 111.6L802.9 111.6L802.9 111.6L803.2 103.5L805.2 99.3L805.5 99.0L808.9 94.8L809.0 89.1L812.3 88.6L812.4 88.5L813.3 84.5L815.5 83.4L820.4 66.5L820.5 65.3L820.6 66.7L825.3 68.9L825.3 69.2L828.2 62.7L828.3 62.5L828.3 49.0L828.6 48.5L828.8 47.6L828.9 45.6L829.2 44.8L829.4 42.7L830.5 41.4L830.6 40.0L831.6 33.6L831.6 30.4L831.6 28.6L832.2 26.0L832.3 24.0L847.2 42.5L852.2 40.8L857.8 42.0L863.2 63.7L863.2 62.4L868.7 60.6L884.0 79.1" fill="none" stroke="#26a69a" stroke-width="1.8"/>
<line x1="64" y1="345.1" x2="884" y2="345.1" stroke="#9aa0ac" stroke-width="1"/>
<text x="64" y="16" font-size="13" fill="#131722" font-weight="700">워뇨띠(aoa) 누적 순손익 곡선 — 재구성 1,183건 (BTC, 청산시각순)</text>
<text x="884" y="16" font-size="12" fill="#26a69a" text-anchor="end" font-weight="700">최종 +2,737 BTC · MDD −17%</text>
</svg>